<svg xmlns="http://www.w3.org/2000/svg" viewBox="0 0 25 25"><circle cx="12.5" cy="12.5" r="12.5" fill="#1d1d1b"/><path fill="#fff" d="M3.54 12.54c.3 0 .5-.11.5-.35v-.01c0-.22-.16-.35-.53-.35H2.7v.71zm-.2-1.3c.32 0 .52-.1.52-.34v-.01c0-.21-.17-.33-.47-.33h-.7v.68zM2 9.94h1.5c.37 0 .66.1.84.28a.74.74 0 0 1 .22.55v.01c0 .37-.2.57-.42.7.37.14.6.36.6.79 0 .6-.48.9-1.2.9H2V9.93m5.68 1.62v-.01a.98.98 0 0 0-.98-1.01c-.57 0-.96.45-.96 1v.01c0 .55.4 1.01.97 1.01s.97-.45.97-1zm-2.69 0v-.01c0-.92.73-1.67 1.72-1.67 1 0 1.71.74 1.71 1.66v.01c0 .92-.72 1.67-1.72 1.67S5 12.47 5 11.56m10.9-1.62h.7v3.22h-.7V9.94m1.4 0h2.43v.63H18v.65h1.52v.63H18v.68h1.75v.63h-2.46V9.94m-6.32 0v1.98L9.46 9.94h-.98l.33.43v2.8h.7v-2.01l1.52 2h.64V9.94h-.7m3.56 0v1.98L13 9.94h-.98l.33.43v2.8h.7v-2.01l1.53 2h.64V9.94h-.7m6.36.64h.7c.35 0 .56.15.56.46 0 .28-.2.46-.54.46h-.72l1.26 1.66H23l-.86-1.12c.44-.15.73-.5.73-1.03 0-.31-.1-.57-.28-.75-.2-.2-.53-.32-.94-.32h-1.47v3.22h.71v-2.58M2.77 14.62a.23.23 0 0 0-.07-.18.272.272 0 0 0-.2-.07 2.76 2.76 0 0 0-.15 0v.43a.09.09 0 0 0 .04.08c.03.02.07.03.12.03.09 0 .15-.03.2-.08.04-.05.06-.12.06-.21zm-.12-.4a.21.21 0 0 0 .05-.07.38.38 0 0 0 .01-.1.22.22 0 0 0-.05-.16c-.04-.04-.1-.06-.18-.06a2.44 2.44 0 0 0-.13 0v.47h.1a.35.35 0 0 0 .12-.02.19.19 0 0 0 .08-.05zm.21.2a.27.27 0 0 1 .12.23.28.28 0 0 1-.03.14.32.32 0 0 1-.1.1.44.44 0 0 1-.13.07.54.54 0 0 1-.15.02H2v-.06l.06-.01a.23.23 0 0 0 .06-.01.08.08 0 0 0 .03-.04.1.1 0 0 0 .01-.05v-.87a.13.13 0 0 0 0-.05.07.07 0 0 0-.04-.04.42.42 0 0 0-.11-.02v-.06h.68a.4.4 0 0 1 .11.05.23.23 0 0 1 .12.2.25.25 0 0 1-.1.2.38.38 0 0 1-.08.07.53.53 0 0 1-.11.03v.01a.65.65 0 0 1 .12.03.4.4 0 0 1 .11.05m1.1.55l-.27.02-.02-.01v-.1a1.51 1.51 0 0 1-.05.04.37.37 0 0 1-.13.08.33.33 0 0 1-.1 0c-.08 0-.13-.02-.17-.07a.33.33 0 0 1-.06-.2v-.41a.1.1 0 0 0-.01-.05.1.1 0 0 0-.04-.04.1.1 0 0 0-.03-.01.38.38 0 0 0-.05 0v-.07l.28-.01v.6c0 .05.02.1.05.13.03.03.06.04.1.04a.23.23 0 0 0 .14-.04.29.29 0 0 0 .07-.08v-.47a.1.1 0 0 0-.04-.1.1.1 0 0 0-.05 0 2.98 2.98 0 0 0-.07 0v-.06l.3-.02h.02v.67a.1.1 0 0 0 .05.09.1.1 0 0 0 .03.01h.05v.06m.62-.4l.05.07a.23.23 0 0 1 .02.1.24.24 0 0 1-.09.2.34.34 0 0 1-.23.07.37.37 0 0 1-.22-.08l-.02.06h-.06v-.3h.05a.37.37 0 0 0 .08.16.3.3 0 0 0 .08.07.21.21 0 0 0 .1.02.19.19 0 0 0 .13-.03.13.13 0 0 0 .05-.11.13.13 0 0 0-.02-.06.14.14 0 0 0-.04-.05.33.33 0 0 0-.07-.03 1.37 1.37 0 0 0-.09-.03.83.83 0 0 1-.09-.04.35.35 0 0 1-.08-.05.24.24 0 0 1-.06-.07.21.21 0 0 1-.03-.1.23.23 0 0 1 .08-.18.29.29 0 0 1 .2-.07.42.42 0 0 1 .2.04l.01-.04h.06l.01.27h-.05a.27.27 0 0 0-.08-.15.2.2 0 0 0-.15-.05.16.16 0 0 0-.1.03.11.11 0 0 0-.05.09c0 .02 0 .04.02.06a.12.12 0 0 0 .04.04.33.33 0 0 0 .06.04l.1.03a.82.82 0 0 1 .1.04l.09.05m.47-.77c0 .04 0 .06-.03.09a.1.1 0 0 1-.08.03.1.1 0 0 1-.08-.03.12.12 0 0 1 0-.16.1.1 0 0 1 .08-.04.1.1 0 0 1 .08.04c.02.02.03.04.03.07zm.1 1.19h-.4v-.06h.04a.15.15 0 0 0 .04-.01.06.06 0 0 0 .03-.03.1.1 0 0 0 .01-.05v-.52a.1.1 0 0 0 0-.05.11.11 0 0 0-.04-.03.16.16 0 0 0-.05-.02.34.34 0 0 0-.06-.01v-.06l.3-.01h.01v.7l.01.04a.07.07 0 0 0 .04.03.28.28 0 0 0 .08.02v.06m1 0h-.41v-.06a4.78 4.78 0 0 1 .04 0 .17.17 0 0 0 .04-.01.06.06 0 0 0 .03-.03.1.1 0 0 0 .01-.05v-.43a.2.2 0 0 0-.04-.14.13.13 0 0 0-.1-.05.23.23 0 0 0-.08.02.3.3 0 0 0-.07.03.19.19 0 0 0-.05.04.38.38 0 0 0-.02.04v.48l.01.05.04.03.04.01a.34.34 0 0 0 .04.01v.06h-.41v-.06h.04a.16.16 0 0 0 .03-.01.06.06 0 0 0 .04-.03.1.1 0 0 0 .01-.05v-.52a.12.12 0 0 0-.01-.05.1.1 0 0 0-.04-.04.12.12 0 0 0-.03-.01.34.34 0 0 0-.05-.01v-.06l.28-.01h.01v.12l.05-.04a.3.3 0 0 1 .24-.1c.08 0 .14.03.18.08a.32.32 0 0 1 .05.2v.44l.01.04a.07.07 0 0 0 .04.03.22.22 0 0 0 .08.02v.06m.59-.52a.7.7 0 0 0 0-.1.31.31 0 0 0-.04-.1.15.15 0 0 0-.14-.08.18.18 0 0 0-.15.07.35.35 0 0 0-.06.2zm.19.32a.43.43 0 0 1-.14.16.41.41 0 0 1-.39.02.35.35 0 0 1-.12-.1.41.41 0 0 1-.08-.14.6.6 0 0 1-.02-.17.51.51 0 0 1 .1-.3.35.35 0 0 1 .28-.14.39.39 0 0 1 .16.03c.05.02.08.05.1.08a.32.32 0 0 1 .07.11.52.52 0 0 1 .02.14v.06h-.56a.66.66 0 0 0 .01.15.36.36 0 0 0 .05.12.26.26 0 0 0 .1.08.27.27 0 0 0 .12.02.24.24 0 0 0 .13-.03.35.35 0 0 0 .1-.13l.07.04m.62-.22a.2.2 0 0 1 .05.07.23.23 0 0 1 .02.1.24.24 0 0 1-.09.2.34.34 0 0 1-.22.07.37.37 0 0 1-.23-.08l-.01.06H7v-.3h.05a.38.38 0 0 0 .09.16.3.3 0 0 0 .08.07.21.21 0 0 0 .1.02.19.19 0 0 0 .13-.03c.03-.03.04-.06.04-.11a.13.13 0 0 0-.01-.06.14.14 0 0 0-.05-.05.33.33 0 0 0-.06-.03 1.37 1.37 0 0 0-.1-.03.83.83 0 0 1-.09-.04.35.35 0 0 1-.08-.05.24.24 0 0 1-.06-.07.21.21 0 0 1-.02-.1.23.23 0 0 1 .07-.18.29.29 0 0 1 .2-.07.42.42 0 0 1 .2.04l.01-.04h.06l.02.27h-.06a.27.27 0 0 0-.08-.15.2.2 0 0 0-.14-.05.16.16 0 0 0-.11.03.11.11 0 0 0-.04.09l.01.06a.12.12 0 0 0 .04.04.33.33 0 0 0 .06.04l.1.03a.82.82 0 0 1 .1.04.36.36 0 0 1 .09.05m.71 0l.06.07a.23.23 0 0 1 .02.1.24.24 0 0 1-.1.2.34.34 0 0 1-.22.07.37.37 0 0 1-.22-.08l-.02.06h-.06l-.01-.3h.06a.37.37 0 0 0 .08.16.3.3 0 0 0 .08.07.21.21 0 0 0 .1.02.19.19 0 0 0 .13-.03.13.13 0 0 0 .05-.11.13.13 0 0 0-.02-.06.14.14 0 0 0-.04-.05.33.33 0 0 0-.07-.03 1.37 1.37 0 0 0-.09-.03.83.83 0 0 1-.09-.04.35.35 0 0 1-.08-.05.24.24 0 0 1-.06-.07.21.21 0 0 1-.03-.1.23.23 0 0 1 .08-.18.29.29 0 0 1 .2-.07.42.42 0 0 1 .19.04l.02-.04h.06l.01.27h-.06a.27.27 0 0 0-.07-.15.2.2 0 0 0-.15-.05.16.16 0 0 0-.1.03.11.11 0 0 0-.05.09l.01.06a.12.12 0 0 0 .04.04.33.33 0 0 0 .07.04l.1.03a.82.82 0 0 1 .1.04.36.36 0 0 1 .08.05m2.02.42h-.54v-.06l.08-.01a.19.19 0 0 0 .06-.01.11.11 0 0 0 .04-.04.1.1 0 0 0 .01-.05v-.88h-.01l-.42 1.03h-.04l-.4-1.06v.73l.01.16a.15.15 0 0 0 .04.07.47.47 0 0 0 .15.06v.06H8.8v-.06a.62.62 0 0 0 .08-.02.16.16 0 0 0 .06-.02.13.13 0 0 0 .04-.08.85.85 0 0 0 .01-.16v-.62a.25.25 0 0 0 0-.1.14.14 0 0 0-.05-.05.17.17 0 0 0-.06-.03.33.33 0 0 0-.08-.01v-.06h.42l.34.9.3-.76a.74.74 0 0 0 .04-.14h.4v.06a.44.44 0 0 0-.12.02.06.06 0 0 0-.04.03.13.13 0 0 0-.01.05v.88l.01.05.04.03a.45.45 0 0 0 .12.03v.06m.62-.52a.7.7 0 0 0 0-.1.31.31 0 0 0-.03-.1.15.15 0 0 0-.15-.08.18.18 0 0 0-.14.07.35.35 0 0 0-.07.2zm.19.32a.43.43 0 0 1-.14.16.41.41 0 0 1-.38.02.35.35 0 0 1-.13-.1.41.41 0 0 1-.07-.14.6.6 0 0 1-.03-.17.51.51 0 0 1 .1-.3.35.35 0 0 1 .29-.14.39.39 0 0 1 .15.03c.05.02.08.05.11.08a.3.3 0 0 1 .06.11l.02.14v.06h-.56a.66.66 0 0 0 .02.15.36.36 0 0 0 .05.12.24.24 0 0 0 .21.1c.05 0 .1 0 .13-.03a.35.35 0 0 0 .11-.13l.06.04m.67.03v-.49a.22.22 0 0 0-.06-.1.2.2 0 0 0-.23-.02.25.25 0 0 0-.07.08.4.4 0 0 0-.05.12.68.68 0 0 0 0 .3c0 .03.02.07.04.1.02.04.05.06.08.08a.2.2 0 0 0 .1.03.2.2 0 0 0 .12-.03.36.36 0 0 0 .07-.07zm.31.15l-.29.02-.01-.01v-.08h-.01a.35.35 0 0 1-.24.11.32.32 0 0 1-.14-.03.35.35 0 0 1-.12-.1.44.44 0 0 1-.08-.13.54.54 0 0 1 0-.36.46.46 0 0 1 .1-.14.38.38 0 0 1 .27-.13.45.45 0 0 1 .21.06v-.3a.17.17 0 0 0 0-.06.1.1 0 0 0-.04-.05.17.17 0 0 0-.07-.02.84.84 0 0 0-.08-.01v-.06l.34-.01h.01v1.14c0 .02 0 .04.02.05a.1.1 0 0 0 .03.04.1.1 0 0 0 .05.01h.05v.06m.36-1.17c0 .04 0 .06-.03.09a.1.1 0 0 1-.08.03.1.1 0 0 1-.07-.03.12.12 0 0 1 0-.16.1.1 0 0 1 .07-.04.1.1 0 0 1 .08.04c.02.02.03.04.03.07zm.11 1.19h-.4v-.06h.03a.16.16 0 0 0 .04-.01.06.06 0 0 0 .04-.03.1.1 0 0 0 0-.05v-.52a.1.1 0 0 0 0-.05.11.11 0 0 0-.04-.03.16.16 0 0 0-.05-.02.34.34 0 0 0-.05-.01v-.06l.3-.01v.7l.02.04c0 .02.02.03.03.03a.28.28 0 0 0 .08.02v.06m.57-.47a1.46 1.46 0 0 0-.13.04.51.51 0 0 0-.1.05.23.23 0 0 0-.07.07.17.17 0 0 0-.03.1c0 .04.02.08.04.1a.14.14 0 0 0 .1.03.2.2 0 0 0 .1-.03.31.31 0 0 0 .08-.06zm.3.45l-.08.02a.24.24 0 0 1-.07.01.17.17 0 0 1-.1-.03.14.14 0 0 1-.05-.09.33.33 0 0 1-.28.13.22.22 0 0 1-.16-.06.2.2 0 0 1-.06-.15c0-.03 0-.06.02-.09a.2.2 0 0 1 .1-.11.5.5 0 0 1 .06-.04l.16-.05.15-.06v-.09a.36.36 0 0 0 0-.04.18.18 0 0 0-.07-.11.14.14 0 0 0-.09-.03.2.2 0 0 0-.07.02.13.13 0 0 0-.05.02.2.2 0 0 0 .01.05.26.26 0 0 1 0 .07c0 .02 0 .03-.02.05a.1.1 0 0 1-.07.03.09.09 0 0 1-.07-.03.12.12 0 0 1 .01-.15.28.28 0 0 1 .07-.06.4.4 0 0 1 .2-.06l.13.01a.23.23 0 0 1 .1.04.2.2 0 0 1 .06.09.37.37 0 0 1 .02.14v.22a7.5 7.5 0 0 0 0 .2l.01.05c0 .02.02.03.04.04a.09.09 0 0 0 .04 0h.05v.06"/></svg>