<svg xmlns="http://www.w3.org/2000/svg" viewBox="0 0 25 25"><circle r="12.5" cy="12.5" cx="12.5" fill="#1d1d1b"/><path fill="#fff" d="M6.896 8.08c.103.05.18.153.232.255.052.102.103.23.103.383s-.026.28-.103.383c-.077.102-.154.205-.258.281a.773.773 0 0 1-.36.153 2 2 0 0 1-.412.051H4.552v-.153c.025 0 .103 0 .154-.025.078 0 .13-.026.155-.026.051-.025.077-.051.103-.076.026-.026.026-.077.026-.128V6.853c0-.05 0-.102-.026-.127a.2.2 0 0 0-.103-.103.37.37 0 0 0-.155-.05c-.051 0-.103-.026-.154-.026v-.153h1.494c.129 0 .232 0 .335.025.103.026.206.051.31.128.102.051.154.128.231.204a.702.702 0 0 1 .077.332c0 .102-.026.205-.051.307-.052.076-.103.153-.18.23l-.232.153a1.263 1.263 0 0 1-.284.102V7.9a.7.7 0 0 1 .31.077c.128-.025.231.026.334.102zm-.567-.486c.052-.076.104-.127.13-.204.025-.077.025-.179.025-.281a.537.537 0 0 0-.155-.409c-.103-.102-.257-.153-.463-.153h-.361v1.226h.283c.13 0 .232-.025.335-.051a.565.565 0 0 0 .206-.128zm.31 1.022a.596.596 0 0 0-.206-.46c-.13-.128-.31-.179-.567-.179h-.412v1.15c0 .102.051.179.128.204.077.051.18.077.335.077.232 0 .412-.077.516-.205.154-.127.206-.332.206-.587zM9.6 8.437c0 .153-.025.307-.077.46a1.35 1.35 0 0 1-.206.383 1.251 1.251 0 0 1-.36.28c-.13.052-.284.078-.464.078a1.078 1.077 0 0 1-.413-.077.785.785 0 0 1-.334-.23.96.96 0 0 1-.232-.383 1.476 1.475 0 0 1-.078-.485c0-.358.103-.639.31-.869.206-.23.463-.332.798-.332.31 0 .567.102.773.307.18.23.284.51.284.868zm-.489 0c0-.102 0-.23-.026-.358a1.263 1.263 0 0 0-.103-.332.454.454 0 0 0-.206-.23.524.524 0 0 0-.283-.076.551.551 0 0 0-.31.077.605.605 0 0 0-.206.23 1.44 1.44 0 0 0-.103.306c-.025.128-.025.23-.025.332 0 .153 0 .28.025.409.026.127.052.23.103.332a.62.62 0 0 0 .206.23c.078.05.18.076.284.076.18 0 .335-.102.464-.28.129-.128.18-.384.18-.716zm2.913 1.149h-1.108v-.153h.128c.052 0 .078 0 .103-.025.052-.026.078-.026.103-.077.026-.025.026-.077.026-.128V8.054c0-.153-.026-.28-.103-.358a.415.415 0 0 0-.283-.127c-.077 0-.155 0-.232.025a.417.417 0 0 0-.18.102c-.052.026-.103.077-.13.102a.353.353 0 0 1-.077.103v1.302c0 .051 0 .103.026.128.026.025.052.051.103.077.026.025.078.025.103.025.026 0 .078.026.13.026v.153h-1.11v-.153h.103c.026 0 .078 0 .103-.026.052-.025.078-.025.103-.076.026-.026.026-.077.026-.128v-1.38c0-.05 0-.102-.026-.153a.2.2 0 0 0-.103-.102c-.025-.025-.051-.025-.103-.05-.051 0-.077-.026-.129-.026v-.154l.748-.05.025.025v.306l.13-.127a.63.63 0 0 1 .154-.128c.051-.025.129-.077.206-.102.077-.026.154-.026.258-.026.206 0 .386.077.49.205.102.127.154.306.154.536v1.175c0 .05 0 .102.026.128.025.025.05.05.103.076.025.026.077.026.103.026.025 0 .051 0 .103.025v.153zm2.602 0h-1.108v-.153h.129c.051 0 .077 0 .103-.025.051-.026.077-.026.103-.077.025-.025.025-.077.025-.128V8.054c0-.153-.025-.28-.103-.358a.415.415 0 0 0-.283-.127c-.077 0-.155 0-.232.025a.418.418 0 0 0-.18.102c-.052.026-.103.077-.13.102a.353.353 0 0 1-.076.103v1.302c0 .051 0 .103.025.128.026.025.052.051.103.077.026.025.078.025.104.025.025 0 .077.026.128.026v.153h-1.107v-.153h.103c.025 0 .077 0 .103-.026.051-.025.077-.025.103-.076.025-.051.025-.103.025-.154V7.824c0-.05 0-.102-.025-.153a.2.2 0 0 0-.103-.102c-.026-.026-.052-.026-.103-.051-.052 0-.078-.026-.13-.026V7.34l.748-.051.026.025v.307l.128-.128a.685.685 0 0 1 .155-.128c.052-.025.13-.076.206-.102.078-.025.155-.025.258-.025.206 0 .386.076.49.204.102.128.154.306.154.536v1.175c0 .051 0 .102.026.128a.356.356 0 0 0 .103.077c.026.025.077.025.103.025.026 0 .051 0 .103.026v.178zm1.21 0h-1.081v-.153h.103c.025 0 .077 0 .103-.025.051-.026.077-.026.103-.077.025-.025.025-.077.025-.128V7.824c0-.05 0-.102-.025-.128a.2.2 0 0 0-.103-.102c-.026-.025-.078-.025-.13-.05-.076-.026-.128-.026-.154-.026v-.154l.799-.05.026.025v1.839c0 .05 0 .102.025.128.026.025.052.05.103.076.026.026.078.026.104.026.025 0 .077.025.103.025zm-.283-3.167a.41.41 0 0 1-.077.23.235.235 0 0 1-.206.102.235.235 0 0 1-.206-.102c-.052-.076-.078-.127-.078-.204 0-.077.026-.153.078-.23.051-.051.128-.102.206-.102.077 0 .154.025.206.077a.41.41 0 0 1 .077.23zm2.242 2.631a1.274 1.274 0 0 1-.387.434.958.958 0 0 1-.54.154c-.181 0-.336-.026-.49-.103a.836.836 0 0 1-.335-.255 1.35 1.35 0 0 1-.206-.383 1.435 1.435 0 0 1-.078-.46 1.392 1.392 0 0 1 .283-.817.836.836 0 0 1 .336-.256.852.852 0 0 1 .438-.102.99.99 0 0 1 .412.077c.129.051.206.128.283.204a.582.582 0 0 1 .155.307c.026.127.051.23.051.383v.153h-1.494c0 .153.026.28.052.409a.849.849 0 0 0 .128.306.61.61 0 0 0 .232.205.718.718 0 0 0 .335.076.595.595 0 0 0 .36-.102.925.925 0 0 0 .284-.332zm-.516-.843c0-.076 0-.179-.025-.28-.026-.103-.026-.18-.078-.256a.345.345 0 0 0-.154-.179c-.052-.051-.13-.077-.232-.077-.155 0-.284.077-.412.205-.103.127-.155.306-.18.562h1.081zm2.191-.587a.48.48 0 0 1-.052.204.218.218 0 0 1-.18.102.294.294 0 0 1-.206-.076c-.052-.052-.078-.103-.078-.154v-.102c0-.025 0-.05.026-.076a.578.578 0 0 0-.258.076.614.614 0 0 0-.257.256v1.302c0 .051 0 .102.025.128.026.025.052.051.103.077.026.025.078.025.155.025.052 0 .103.026.154.026v.153h-1.185v-.153h.103c.026 0 .078 0 .103-.026.052-.025.078-.025.104-.076.025-.026.025-.077.025-.128v-1.38c0-.05 0-.102-.025-.127a.2.2 0 0 0-.104-.102c-.025-.026-.051-.026-.103-.051-.051 0-.077-.026-.128-.026V7.34l.747-.051.026.025v.307c.103-.128.206-.205.309-.281.129-.051.232-.102.309-.102.103 0 .18.025.232.102.129.102.154.179.154.28zM8.08 10.455c-.051 0-.103.025-.206.025a.618.618 0 0 0-.18.077c-.052.025-.103.102-.103.23-.026.102-.026.255-.026.408v2.376H7.36l-1.984-2.657v1.66c0 .18 0 .333.026.435.026.102.051.179.103.204a.497.497 0 0 0 .206.102c.103.026.18.051.206.051v.154h-1.34v-.154c.052 0 .103-.025.206-.05.103-.026.155-.052.18-.077.052-.051.104-.103.104-.205.026-.076.026-.23.026-.46v-1.583c0-.077 0-.128-.026-.204-.026-.077-.052-.128-.103-.154a.5.5 0 0 0-.232-.127c-.103-.026-.18-.051-.232-.051V10.3h1.005l1.83 2.478v-1.532c0-.18 0-.333-.027-.435-.026-.102-.051-.179-.103-.204-.051-.025-.103-.051-.206-.077-.103-.025-.18-.05-.232-.05v-.154h1.314zm1.855 2.554a1.274 1.274 0 0 1-.386.434.958.958 0 0 1-.541.153c-.18 0-.335-.025-.49-.102a.836.836 0 0 1-.335-.255 1.35 1.35 0 0 1-.206-.384 1.435 1.435 0 0 1-.077-.46c0-.152.026-.28.077-.433a1.11 1.11 0 0 1 .206-.383.836.836 0 0 1 .335-.256.853.853 0 0 1 .438-.102c.155 0 .31.026.439.077a.811.811 0 0 1 .283.204.582.582 0 0 1 .154.307c.026.127.052.23.052.383v.153H8.391c0 .153.025.28.051.408a.849.849 0 0 0 .129.307.606.606 0 0 0 .232.204.718.718 0 0 0 .335.077.595.595 0 0 0 .36-.102c.103-.051.207-.179.284-.332zm-.515-.868c0-.077 0-.18-.026-.281-.025-.103-.025-.18-.077-.256a.348.348 0 0 0-.154-.179c-.052-.05-.13-.076-.232-.076-.155 0-.284.076-.413.204-.103.128-.154.307-.18.562H9.42v.025zm4.02-.716c-.078 0-.13.026-.207.077a.398.398 0 0 0-.154.204c-.078.23-.155.434-.206.639-.078.204-.155.434-.232.664a3.103 3.103 0 0 0-.078.255c-.025.102-.051.179-.077.256h-.206l-.618-1.66-.619 1.66h-.18c-.103-.332-.232-.664-.335-.996-.103-.332-.206-.613-.283-.869a.457.457 0 0 0-.13-.179c-.076-.05-.128-.076-.205-.076v-.153h1.005v.153c-.052 0-.103 0-.155.025-.051.026-.077.051-.077.077v.05c0 .027 0 .052.026.052.051.153.103.332.154.537.052.204.155.46.232.766l.567-1.61h.232l.592 1.584c.077-.204.13-.409.206-.587.078-.18.13-.358.18-.537 0-.05.026-.076.026-.102 0-.025.026-.076.026-.102 0-.025 0-.05-.026-.077-.025-.025-.051-.05-.077-.05-.026 0-.051-.026-.103-.026h-.077v-.153h.85v.178zm1.468 1.022c.052.051.103.128.155.179.025.076.051.153.051.255a.64.64 0 0 1-.232.511.945.945 0 0 1-.618.204.83.83 0 0 1-.36-.076c-.104-.052-.181-.103-.233-.128l-.051.153h-.18l-.026-.792h.154c0 .051.026.128.078.205.051.076.077.153.154.204a.693.693 0 0 0 .206.179c.078.051.18.076.284.076.154 0 .257-.025.335-.102.077-.076.129-.153.129-.28 0-.052 0-.128-.026-.154a.454.454 0 0 0-.103-.128c-.052-.025-.103-.076-.18-.102-.078-.025-.155-.05-.258-.076l-.232-.077c-.078-.025-.155-.077-.232-.128a.398.398 0 0 1-.155-.204.51.51 0 0 1-.077-.281c0-.179.077-.332.206-.46.129-.127.335-.178.567-.178a1.171 1.171 0 0 1 .515.102l.052-.128h.154l.026.715h-.154a.702.702 0 0 0-.207-.383.527.527 0 0 0-.386-.153c-.129 0-.232.025-.31.102-.077.05-.102.128-.102.23 0 .077 0 .128.025.179a.452.452 0 0 0 .103.127c.052.026.104.051.181.077.077.025.154.051.258.102.103.026.206.077.283.102a.561.561 0 0 1 .206.128zm-7.73 4.086l-.077.97h-2.55v-.152c.025 0 .077 0 .154-.026.078 0 .13-.025.155-.025a.366.366 0 0 0 .103-.077c.026-.026.026-.077.026-.153v-2.324c0-.051 0-.103-.026-.128a.2.2 0 0 0-.103-.102c-.026-.026-.077-.026-.155-.051-.051-.026-.129-.026-.154-.026v-.153h1.365v.128c-.051 0-.103 0-.154.025-.078.026-.13.026-.155.026a.2.2 0 0 0-.103.102v2.324c0 .102 0 .179.026.23a.14.14 0 0 0 .077.127c.026.026.077.051.155.051h.463c.052 0 .13 0 .18-.025.052 0 .104-.026.155-.026.052-.025.078-.025.103-.05.052-.077.13-.18.232-.307l.18-.358h.104zm1.16.97H7.257v-.152h.103c.026 0 .077 0 .103-.026.052-.025.077-.025.103-.076v-1.507c0-.051 0-.103-.026-.128a.2.2 0 0 0-.103-.102c-.025-.026-.077-.026-.129-.051-.051-.026-.103-.026-.128-.026v-.153l.798-.051.026.025v1.84c0 .05 0 .101.026.127.026.026.051.051.103.077.026.025.077.025.103.025.026 0 .077.026.103.026zm-.283-3.166a.409.409 0 0 1-.078.23c-.077.05-.154.102-.231.102a.235.235 0 0 1-.207-.102.288.288 0 0 1-.077-.205c0-.076.026-.153.077-.23.052-.05.13-.102.207-.102.077 0 .154.026.206.077a.31.31 0 0 1 .103.23zm2.138-.102c0 .076-.026.127-.051.179-.026.05-.103.076-.18.076-.052 0-.078 0-.13-.025-.025-.026-.077-.051-.103-.077-.025-.026-.051-.077-.077-.102a.355.355 0 0 0-.077-.102c-.103 0-.18.076-.232.204-.052.128-.077.358-.077.664v.23h.592v.23h-.592v1.609c0 .05 0 .102.025.128.026.025.052.05.103.076.026.026.078.026.155.026.051 0 .103.025.155.025v.154H8.519v-.154h.103c.026 0 .078 0 .104-.025.051-.026.077-.026.103-.077.025-.025.025-.077.025-.128v-1.634h-.438v-.23h.438v-.153c0-.332.078-.613.258-.818a.871.871 0 0 1 .67-.306c.129 0 .232.025.309.076.052.026.103.077.103.154zm1.573 2.733a1.274 1.274 0 0 1-.387.434.958.958 0 0 1-.54.153c-.181 0-.336-.025-.49-.102a.836.836 0 0 1-.335-.256 1.35 1.35 0 0 1-.206-.383 1.435 1.435 0 0 1-.078-.46c0-.153.026-.28.078-.433a1.1 1.1 0 0 1 .206-.384.836.836 0 0 1 .335-.255.853.853 0 0 1 .438-.102c.154 0 .309.025.438.076s.206.128.283.205a.581.581 0 0 1 .155.306c.026.128.051.23.051.383v.153H10.22c0 .154.026.281.051.41a.849.849 0 0 0 .13.306.605.605 0 0 0 .231.204.718.718 0 0 0 .335.077.595.595 0 0 0 .36-.103c.104-.05.207-.178.284-.332zm-.516-.843c0-.077 0-.179-.025-.281-.026-.102-.026-.179-.078-.256-.025-.076-.077-.127-.154-.178-.052-.051-.129-.077-.232-.077-.155 0-.284.077-.412.204-.103.128-.155.307-.18.562h1.081zm2.165.28c.051.052.103.128.154.18a.75.75 0 0 1 .052.255.64.64 0 0 1-.232.51.944.944 0 0 1-.618.205.829.829 0 0 1-.361-.077c-.103-.05-.18-.102-.232-.127l-.051.153h-.18l-.027-.792h.155c0 .051.026.128.077.204.052.077.078.154.155.205a.698.698 0 0 0 .206.179.53.53 0 0 0 .283.076c.155 0 .258-.025.335-.102.078-.077.13-.153.13-.28 0-.052 0-.129-.027-.154a.452.452 0 0 0-.103-.128c-.051-.025-.103-.077-.18-.102-.077-.025-.155-.051-.258-.077l-.232-.076c-.077-.026-.154-.077-.231-.128a.398.398 0 0 1-.155-.204.51.51 0 0 1-.077-.281c0-.179.077-.332.206-.46s.335-.179.567-.179a1.173 1.173 0 0 1 .515.102l.051-.127h.155l.026.715h-.155a.702.702 0 0 0-.206-.383.527.527 0 0 0-.386-.153c-.13 0-.232.025-.31.102-.077.05-.103.127-.103.23 0 .076 0 .127.026.178a.452.452 0 0 0 .103.128c.052.025.103.051.18.077.078.025.155.05.258.102.103.025.206.076.284.102.051.025.128.077.206.128zm1.752.997c-.103.05-.206.076-.284.102a1.153 1.153 0 0 1-.335.05c-.18 0-.335-.05-.412-.152a.647.647 0 0 1-.129-.409v-1.532h-.412v-.23h.412v-.69h.413v.69h.644v.23h-.644v1.481c0 .05.025.128.051.153a.2.2 0 0 0 .103.102c.052.026.103.026.206.026h.18c.078 0 .13-.026.155-.026v.205zm.051.843c0-.077.026-.128.052-.18.025-.05.103-.076.154-.076.052 0 .103 0 .13.026.025.025.076.05.102.076a.35.35 0 0 1 .078.103c.025.05.051.076.051.102a.978.978 0 0 0 .284-.332 3.8 3.8 0 0 0 .231-.46 18.557 18.555 0 0 1-.386-.97c-.129-.282-.232-.588-.36-.895a.231.231 0 0 0-.155-.153c-.078-.05-.13-.05-.207-.076v-.154h1.031v.154c-.051 0-.103 0-.154.025-.078.026-.104.026-.104.051v.051c0 .026.026.051.026.077.052.153.155.357.258.638.129.281.206.511.283.69.077-.153.13-.332.206-.51.078-.18.155-.384.258-.614 0-.025.026-.076.052-.127.025-.052.025-.103.025-.128 0-.051-.025-.077-.103-.102-.077-.026-.129-.051-.206-.051v-.154h.85v.154c-.051 0-.103.025-.18.076a.6.6 0 0 0-.18.179c-.18.409-.335.792-.49 1.15-.154.357-.258.587-.335.766-.103.204-.18.383-.257.51a1.36 1.36 0 0 1-.232.281c-.078.051-.13.102-.18.128h-.155a.465.465 0 0 1-.284-.077.221.221 0 0 1-.103-.178zm3.324-.741h-1.108v-.153h.103c.052 0 .077 0 .103-.026.052-.025.077-.025.103-.076.026-.026.026-.077.026-.128v-2.605c0-.051 0-.102-.026-.154a.2.2 0 0 0-.103-.102c-.026-.025-.077-.025-.154-.05a.538.538 0 0 0-.155-.052v-.153l.85-.051.026.025v3.09c0 .052 0 .103.026.128a.323.323 0 0 0 .103.077c.026.026.077.026.103.026.026 0 .077.025.103.025zm1.958-.536a1.274 1.274 0 0 1-.386.434.958.958 0 0 1-.542.153c-.18 0-.335-.025-.49-.102a.836.836 0 0 1-.334-.256 1.35 1.35 0 0 1-.206-.383 1.435 1.435 0 0 1-.077-.46c0-.153.025-.28.077-.433a1.1 1.1 0 0 1 .206-.384.836.836 0 0 1 .335-.255.853.853 0 0 1 .438-.102c.155 0 .309.025.438.076s.206.128.283.205a.581.581 0 0 1 .155.306c.026.128.052.23.052.383v.153h-1.495c0 .154.026.281.052.41a.849.849 0 0 0 .128.306c.052.076.13.153.232.204a.718.718 0 0 0 .335.077.595.595 0 0 0 .36-.103c.104-.05.207-.178.284-.332l.155.103zm-.515-.843c0-.077 0-.179-.026-.281-.026-.102-.026-.179-.077-.256-.026-.076-.078-.127-.155-.178-.051-.051-.129-.077-.232-.077-.154 0-.283.077-.412.204-.103.128-.155.307-.18.562h1.082z"/></svg>