<svg xmlns="http://www.w3.org/2000/svg" viewBox="0 0 25 25"><circle r="12.5" cx="12.5" cy="12.5" fill="#fff"/><clipPath id="n5a"><circle r="12.5" cx="12.5" cy="12.5"/></clipPath><g fill="#fff" clip-path="url(#n5a)"><circle stroke="#0976b5" stroke-width="2.5" fill="none" r="11.25" cx="12.5" cy="12.5"/><path d="M16.43 21.755a.744.744 0 0 1-.125.01 1.297 1.297 0 0 1-1.086-.648 36.196 36.196 0 0 1-1.076 1.102l-.005.004.02.043c.195.366.79.471 1.14.37l.015-.004.001-.004a73.039 73.039 0 0 0 1.119-.872zm2.271-2.752L18.688 19h-.022a2.409 2.409 0 0 1-.267-.044l-.037-.007a2.487 2.487 0 0 1-1.029-.535s0-.004.003-.004a13.197 13.197 0 0 1-.837 1.166c.433.673 1.066.806 1.828.628a33.15 33.15 0 0 0 1.53-1.386 2.468 2.468 0 0 1-1.156.185m-6.27-5.705c.232-.147.514-.483.784-.936-.003-.004-.005-.004-.007-.004a9.374 9.374 0 0 1-.444-.124 10.481 10.481 0 0 1-.652.825l.31.24h.007zm3.572-.561c-.502.815-1.106 1.447-1.332 1.586.647.353 1.307.523 1.86.187.422-.256 1.126-.926 1.639-1.71-.091.002-.179.002-.265.002a30.47 30.47 0 0 1-1.902-.065m1.62 2.878c.164.402.238.769.244 1.115 1.178.347 3.934-.68 4.88-2.204v-.003l.002-.004c.06-.64-.184-1.196-.894-1.59l-.11-.064.033.02c-.366.605-2.249 2.173-4.155 2.73m-3.919-5.22l-.16.165a4.2 4.2 0 0 1-.62 1.433c.18.052.543.148.767.193l1.354-1.86zm10.193-6.65l-4.189.216-1.896 2.616a17.592 17.592 0 0 1 4.427-2.075c.47-.148.919-.255 1.345-.327l.314-.43zM13.323 8.44a.157.157 0 0 0 .013.03c.007.02.017.04.024.061a.19.19 0 0 0 .009.025l.033.093.002.005a3.101 3.101 0 0 1 .072.244l.007.018.026.106.009.056.017.075.015.098.006.035.015.132a4.373 4.373 0 0 1 .03.688 30.6 30.6 0 0 1 .81-.794l.077-.072.335-.316c.038-.035.076-.065.115-.102l.305-.276.152-.131c.09-.078.18-.16.275-.235.065-.055.13-.107.192-.16l.238-.197c.083-.069.17-.134.255-.202l.183-.144c.146-.113.295-.224.444-.333l-3.003.155a16.788 16.788 0 0 0-.18.287l-.123.2c-.013.024-.308.538-.36.635l.007.019m12.624-4.83c-.085-.734-.321-1.295-.673-1.708l-1.318 1.811zm-4.23-2.465c-1.574.372-3.392 1.386-5.067 2.947l3.042-.157zm-2.418 8.96l-1.762 2.416c.124 0 .244.006.37.006 1.14 0 2.398-.077 3.651-.289l1.707-2.337zm2.297-3.198l-4.1.211-.16.113-2.225 3.064 4.174-.217zm1.792-2.416L21.65 6.874l3.97-.206 1.36-1.858c-.563-.29-1.28-.465-2.142-.47-.445 0-.932.05-1.452.151m5.01 2.063l-2.76.141-2.315 3.173 3.986-.206c.793-.823 1.16-1.717 1.156-2.52 0-.203-.022-.396-.068-.588M2.735 11.21l-2.69 1.738a9.691 9.691 0 0 0 2.263.242c.959 0 1.785-.115 2.213-.226.032-.006.06-.016.088-.023h.002l.074-.025a3.904 3.904 0 0 1-.226-1.01zm4.868 1.039l.009.073.065.568h-.006a.905.905 0 0 1-1.1-.73l-.002-.019a.898.898 0 0 1 .775-1.011.907.907 0 0 1 1.032.972.894.894 0 0 1-.244.526zm.757.537a1.156 1.156 0 0 0 .254-1.064 1.18 1.18 0 0 0-1.308-.86 1.17 1.17 0 0 0-1.01 1.316 1.175 1.175 0 0 0 1.47.968 1.158 1.158 0 0 0 .594-.36m3.27-1.628l-.567-.437.061.676a.906.906 0 0 1-1.025-.761.896.896 0 0 1 .777-1.01.893.893 0 1 1 .754 1.532m-.627-1.812a1.17 1.17 0 0 0-1.176 1.325 1.188 1.188 0 0 0 1.337.996 1.188 1.188 0 0 0 .65-.309 1.157 1.157 0 0 0 .359-1.005 1.175 1.175 0 0 0-1.17-1.006M4.084 5.943a.747.747 0 0 1 .346-.287 2.122 2.122 0 0 1 1.132-.13l.588-.38c-1.002-.764-2.011-1.258-2.942-1.518l-1.8 1.175 2.676 1.139zM1.349 4.807L-.34 4.09c-.37.351-.578.823-.58 1.417 0 .223.033.463.095.72zm4.959 2.378c.273.236.35.32.368.345a11.608 11.608 0 0 1 .59-.204l-1.86-.79a.726.726 0 0 1-.676.513.742.742 0 0 1-.718-.487l-.538.347a10.461 10.461 0 0 1 .302.12l.069.027c.085.036.17.072.256.115l.133.06.146.07.265.133.024.013c.13.068.257.14.388.215.539-.495.835-.832 1.252-.477m-5.561-.53c-.526 0-1.015.068-1.452.19l2.558 1.082 1.296-.843a7.368 7.368 0 0 0-2.402-.43m1.108 1.301L-.875 9.721l3.606 1.462 1.845-1.195.02-.107a2.063 2.063 0 0 1-.866-.646c-.06-.089-.02-.235.125-.436l-2-.844zm-5.016.874a2.438 2.438 0 0 0-.186.92c0 .433.122.871.38 1.293l2.03-1.312-2.224-.899z" fill="#fff200"/><path d="M17.747 6.617l1.926-2.655-3.055.16a16.888 16.888 0 0 0-2.624 3.15l3.03-.156c.239-.173.48-.34.723-.499m5.876-2.448a7.638 7.638 0 0 1 1.215-.103c.409 0 .79.037 1.143.11a5.16 5.16 0 0 0-.033-.54l-2.015.107zm.295-.455l1.338-1.834a1.79 1.79 0 0 0-.106-.114c-.517-.526-1.252-.783-2.136-.784h-.013a5.68 5.68 0 0 0-1.24.151l-2.03 2.8 4.187-.216zm-2.302 3.163l1.731-2.38a9.648 9.648 0 0 0-1.026.267 17.44 17.44 0 0 0-4.783 2.323zm3.985-.18l-3.97.206-2.312 3.173 3.968-.205zm-4.005 5.537a14.346 14.346 0 0 0 3.134-.88c1.11-.47 1.948-1.044 2.549-1.662l-3.979.205zm-4.092.29l1.759-2.416-4.173.216-1.358 1.868c.245.046.578.096.98.145.736.09 1.702.169 2.792.187m-3.772-2.157l1.338-.07 2.03-2.79.165-.228c-1.197.858-2.341 1.88-3.533 3.088m14.657-3.839c-.171-.702-.642-1.308-1.387-1.704L25.657 6.67l2.732-.142zM1.379 4.826L-.82 6.256c.026.1.057.204.094.309.45-.116.947-.183 1.473-.183.821 0 1.727.158 2.695.517l.56-.362a.7.7 0 0 1 .068-.568L1.38 4.826zm1.794-1.202a5.535 5.535 0 0 0-1.476-.213c-.787 0-1.445.203-1.898.56a1.714 1.714 0 0 0-.115.101l1.693.718zm4.596 3.552l.37-.1-.003-.005a14.174 14.174 0 0 0-.683-.76l-.049-.05a5.74 5.74 0 0 0-.175-.174l-.099-.098a3.938 3.938 0 0 0-.154-.144l-.128-.117a6.15 6.15 0 0 0-.298-.256 11.262 11.262 0 0 0-.377-.306l-.57.371c.88.146 1.697.803 2.167 1.64m-.83-.017l.334.141c-.515-.875-1.003-1.433-1.925-1.31a.72.72 0 0 1 .064.522zM-.905 9.743l-2.046 1.325.065.102c.653.958 1.737 1.499 2.896 1.773l2.695-1.742L-.9 9.743zm2.73-1.8L-.748 6.86a4.2 4.2 0 0 0-1.492.757 3.08 3.08 0 0 0-.911 1.19l2.243.906 2.732-1.768zm.939 3.252l1.69.684a6.855 6.855 0 0 1 .116-1.853zm1.92-3.424c-.007-.004-.015-.006-.023-.013l-.026-.017a6.478 6.478 0 0 0-.213-.107c-.012-.009-.025-.013-.039-.02-.052-.028-.106-.052-.158-.082l-.057-.026-.139-.065a1.273 1.273 0 0 1-.065-.029l-.132-.059c-.026-.009-.046-.02-.07-.03l-.13-.053-.065-.028-.137-.052c-.018-.006-.038-.017-.056-.022l-.19-.072-1.3.845 1.987.837c.16-.214.434-.483.827-.803l.142-.118-.155-.086" fill="#ed1c24"/><path d="M8.37 11.897a.906.906 0 0 0-1.024-.764.898.898 0 0 0-.777 1.01l.002.017a.905.905 0 0 0 1.1.73h.006l-.065-.568-.01-.075.53.381a.884.884 0 0 0 .239-.733m2.501-2.267a.898.898 0 0 0-.777 1.01.907.907 0 0 0 1.03.76l-.065-.675.567.437a.884.884 0 0 0 .27-.768.902.902 0 0 0-1.025-.764m11.873 4.898c-.946 1.523-3.701 2.551-4.88 2.204 0 .073-.002.143-.007.211l-.001.01c-.002.039-.007.073-.01.113-.005.03-.009.065-.016.102-.007.046-.017.085-.024.125l-.016.065-.009.041-.052.18a.432.432 0 0 0-.017.048l-.05.131a.165.165 0 0 1-.017.04l-.006.024-.076.163c-.008.02-.02.038-.027.059l-.033.059-.038.074a.907.907 0 0 0-.026.046c-.009.017-.02.039-.033.057l-.073.13s-.002 0-.002.005c.3.26.653.441 1.027.535l.038.007c.088.02.176.034.268.045h.022l.013.003a2.448 2.448 0 0 0 1.156-.185 59.46 59.46 0 0 0 .493-.495l.032-.03.078-.081c.026-.03.055-.058.08-.09a18.785 18.785 0 0 0 .724-.809c0-.004.003-.004.005-.007l.12-.147c.006-.005.008-.013.014-.017l.11-.138.018-.021.112-.147.008-.014c.039-.048.075-.1.112-.151a1.076 1.076 0 0 0 .044-.064 1.521 1.521 0 0 0 .06-.081l.063-.094a2.44 2.44 0 0 0 .105-.16c.006-.01.014-.019.02-.032.014-.02.024-.038.037-.053l.004-.01.033-.054.009-.013c.022-.038.042-.066.061-.104-.02.037-.039.066-.061.104.326-.536.548-1.058.607-1.541v-.013l.003-.015v-.018l-.002.003m-6.248 5.049c0 .003-.005.006-.007.01-.118.148-.24.306-.366.464l-.048.068-.088.113a12.04 12.04 0 0 1-.77.888 1.308 1.308 0 0 0 1.086.647.744.744 0 0 0 .123-.01h.008a46.671 46.671 0 0 0 1.134-.93l.191-.156c.107-.085.25-.2.42-.342l.034-.031.105-.087.005-.005c-.761.177-1.393.043-1.828-.63m-1.201 3.06c-.345.105-.943-.002-1.136-.37l-.022-.041a41.4 41.4 0 0 1-.27.264l-.196.19a.372.372 0 0 1-.037.036c-.02.022-.04.039-.061.058l-.143.137-.005.006a101.897 101.897 0 0 1-3.551 3.229l-.01.006a3.336 3.336 0 0 1-.095.081c-.027.026-.052.043-.076.067-.01.006-.02.017-.032.023-.01.016-.026.022-.04.038l-.023.013c0 .004-.003.008-.007.008l-.026.022-.028.024-.02.018a.533.533 0 0 0-.036.027l-.016.013c-.016.012-.03.021-.04.033.118-.06.236-.119.356-.183l.03-.017a9.029 9.029 0 0 0 .37-.202c.117-.063.233-.13.35-.196.131-.078.262-.16.398-.238l.013-.01c.124-.074.244-.146.37-.225l.013-.01.105-.063c.006-.006.013-.006.017-.015.025-.013.048-.03.072-.04a.791.791 0 0 1 .045-.034l.037-.022-.033.022c.036-.026.072-.045.107-.071l.043-.025c.006 0 .008-.004.014-.01a2.401 2.401 0 0 0 .14-.09h.003l.007-.007h.006l.145-.098.04-.026.173-.115a55.724 55.724 0 0 0 3.071-2.213l-.006.004-.016.002M27.307 9.662l-3.987.206 2.317-3.173 2.758-.142c.044.19.067.386.067.588.002.804-.363 1.698-1.156 2.52m-2.579 1.693a14.346 14.346 0 0 1-3.133.881l1.704-2.337 3.98-.206c-.601.618-1.442 1.193-2.552 1.662m-6.822 1.175c-.124 0-.245-.006-.367-.006l1.76-2.416 3.965-.206-1.708 2.337a22.09 22.09 0 0 1-3.65.289m-1.374 1.982c-.554.334-1.213.166-1.86-.187.228-.14.829-.772 1.329-1.588a28.241 28.241 0 0 0 2.167.066c-.512.783-1.214 1.453-1.636 1.709m-.495.99l-.017.14c-.28-.224-.653-.566-.78-.745l.35.077a.03.03 0 0 1 .014.003c.031.003.065.011.096.018.136.029.268.048.399.074h.002c-.02.137-.04.263-.064.432m-2.3-3.306l1.355-1.868 4.172-.218-1.76 2.415a27.137 27.137 0 0 1-2.79-.185 16.109 16.109 0 0 1-.98-.144m-.81-.2c.362-.563.54-1.032.62-1.433l.161-.163 1.344-.07-1.354 1.859a9.956 9.956 0 0 1-.767-.194m.546-3.857a.093.093 0 0 0 .007-.01l.154-.265a.582.582 0 0 0 .044-.073l.122-.201a10.446 10.446 0 0 1 .18-.286l3.003-.155a28.589 28.589 0 0 0-.627.477l-.255.202a13.807 13.807 0 0 0-.238.196l-.192.16a9.5 9.5 0 0 0-.275.236l-.151.13-.308.279-.11.1-.34.316c-.026.024-.048.048-.075.072-.123.115-.246.235-.367.355l-.043.04a30.538 30.538 0 0 0-.398.399v.002a4.562 4.562 0 0 0-.047-.822c0-.012-.004-.024-.006-.033l-.015-.098a.618.618 0 0 0-.017-.077l-.01-.056-.025-.104c0-.008-.004-.013-.007-.021a3.276 3.276 0 0 0-.072-.243v-.005a.896.896 0 0 1-.032-.093.108.108 0 0 1-.01-.025l-.027-.061a.356.356 0 0 0-.012-.03.115.115 0 0 0-.008-.021l.157-.285m3.146-4.015l3.055-.157-1.926 2.654c-.243.159-.484.326-.723.498l-3.03.157a16.897 16.897 0 0 1 2.624-3.15m5.1-2.979l-2.024 2.792-3.044.156c1.677-1.56 3.493-2.573 5.068-2.948m1.284-.16h.014c.884 0 1.619.257 2.137.783l.104.114-1.338 1.835-4.19.218 2.033-2.8a5.67 5.67 0 0 1 1.24-.15m2.946 2.628l-1.991.102 1.317-1.813c.352.416.588.98.673 1.71m.034.566a5.728 5.728 0 0 0-1.143-.11 7.638 7.638 0 0 0-1.215.104l.31-.425 2.015-.108c.02.174.033.35.033.54m-4.35 2.727l3.971-.205-2.314 3.173-3.966.205zm-3.819-.326l1.896-2.617 4.192-.216-.315.431a9.936 9.936 0 0 0-1.345.327 17.66 17.66 0 0 0-4.428 2.072m4.51-1.81c.36-.112.699-.2 1.028-.266l-1.733 2.379-4.078.211a17.44 17.44 0 0 1 4.783-2.324m-7.252 5.534l-1.337.069c1.192-1.21 2.336-2.233 3.533-3.088h.003l-.167.228-2.032 2.788zm2.266-3.067c.053-.038.107-.077.163-.113l4.099-.211-2.314 3.17-4.172.217zM26.98 4.81l-1.358 1.86-3.97.204 1.736-2.383a7.616 7.616 0 0 1 1.45-.151c.861.005 1.58.18 2.14.47m1.41 1.717l-2.73.142 1.344-1.845c.744.396 1.215 1.003 1.387 1.703m-16.021 7.77l.032-.185c.038-.196-.013-.504.514-.082l.202.152zm.032-4.413a3.109 3.109 0 0 1-.2.933 1.235 1.235 0 0 0 .028-.472 1.233 1.233 0 0 0-1.4-1.042 1.225 1.225 0 0 0-1.059 1.38 1.22 1.22 0 0 0 .235.559c-.32-.31-.52-.806-.538-1.485-.032-1.213.751-2.214 1.62-2.145.872.068 1.412 1.067 1.314 2.272m-.586 1.475a1.19 1.19 0 0 1-2-.848 1.169 1.169 0 0 1 1.19-1.162 1.175 1.175 0 0 1 1.18 1.167c0 .326-.139.628-.37.843m-3.89 2.298c1.251.027 1.811.153 2.67-1.162-.206 1.656-.588 2.771-2.67 1.162m-.29-.483a1.22 1.22 0 0 1-.633-.085 1.17 1.17 0 0 1-.717-1.073 1.169 1.169 0 0 1 1.187-1.166 1.18 1.18 0 0 1 1.182 1.167 1.17 1.17 0 0 1-.887 1.13l-.13.027m-2.088-1.517c-.336-1.166.04-2.308.881-2.546.839-.234 1.698.517 2.035 1.68.071.248.117.497.14.732a1.246 1.246 0 0 0-1.306-.715 1.225 1.225 0 0 0-1.058 1.377 1.21 1.21 0 0 0 .496.817 1.982 1.982 0 0 1-1.188-1.346m-.494-3.993a13.286 13.286 0 0 0-.387-.212l-.024-.015-.265-.134-.144-.07-.137-.061c-.085-.042-.17-.077-.256-.114-.022-.01-.045-.016-.065-.026a8.948 8.948 0 0 0-.303-.122l.538-.346a.738.738 0 0 0 .718.49.731.731 0 0 0 .677-.516l1.86.79a12.193 12.193 0 0 0-.591.204 3.003 3.003 0 0 0-.368-.343c-.417-.36-.71-.02-1.253.475m-.359.31a5.131 5.131 0 0 0-.826.804l-1.987-.839 1.3-.842.19.07a.386.386 0 0 0 .057.022l.137.054c.02.008.044.016.067.028l.13.052a.595.595 0 0 0 .065.029l.132.059.066.03c.05.02.094.045.14.065l.058.027c.052.028.106.053.158.083.016.006.027.009.04.017l.213.11a.146.146 0 0 1 .024.017c.059.03.12.066.18.098a2.721 2.721 0 0 1-.144.117m-.01 4.947l-.073.022H4.61c-.029.008-.056.018-.087.025a9.846 9.846 0 0 1-2.213.228 9.78 9.78 0 0 1-2.263-.245l2.69-1.738 1.72.696a3.9 3.9 0 0 0 .229 1.012m-7.573-1.755c-.026-.033-.046-.068-.068-.103l2.05-1.325 3.609 1.46-2.696 1.741c-1.161-.273-2.245-.813-2.898-1.773m-.457-1.418c0-.313.065-.624.184-.92l2.225.9-2.03 1.315a2.459 2.459 0 0 1-.376-1.292m1.103-2.135a4.21 4.21 0 0 1 1.493-.757l2.573 1.085L-.909 9.71l-2.242-.905c.183-.438.491-.846.91-1.19M-.338 4.09l1.687.719-2.174 1.42a3.002 3.002 0 0 1-.095-.722c.002-.595.212-1.065.582-1.417m.137-.118c.453-.36 1.11-.56 1.897-.56a5.484 5.484 0 0 1 1.475.212L1.376 4.793-.318 4.07c.038-.033.075-.068.117-.098m2.056 3.954L-.707 6.849a5.362 5.362 0 0 1 1.455-.193c.731 0 1.538.13 2.402.43l-1.297.84zm2.6 3.962l-.033-.013zm0-.013l-1.692-.682 1.805-1.17a6.855 6.855 0 0 0-.113 1.854M3.73 9.236c.125.182.436.474.865.647l-.02.108-1.844 1.19-3.607-1.458 2.731-1.766 2 .842c-.144.2-.185.35-.125.437m.242-2.88a.742.742 0 0 0 .032.18l-.561.362A7.753 7.753 0 0 0 .749 6.38a5.826 5.826 0 0 0-1.473.184 4.14 4.14 0 0 1-.094-.31L1.38 4.823l2.692 1.145a.718.718 0 0 0-.098.388m2.178-1.208l-.587.38a2.136 2.136 0 0 0-1.134.13.764.764 0 0 0-.346.285L1.41 4.806l1.8-1.175c.93.258 1.942.752 2.943 1.514m-.714 1.16a.723.723 0 0 0-.087-.315c.921-.122 1.41.438 1.922 1.311l-.33-.14-1.527-.65a.716.716 0 0 0 .022-.207m1.01-.922l.104.087.163.14.132.117.13.118a6.278 6.278 0 0 1 .254.243c.059.055.117.113.175.175l.048.05c.23.237.458.49.683.76l.001.003c-.121.033-.243.066-.367.102-.47-.837-1.286-1.494-2.167-1.642l.57-.369c.09.07.183.143.273.216m21.26-.417a3.737 3.737 0 0 0-1.45-.724v-.013c0-1.183-.328-2.071-.91-2.659-.58-.587-1.397-.866-2.331-.862-2.971.007-7.237 2.73-9.843 7.402a1.28 1.28 0 0 0-.277-.391c-.19-.144-.405-.246-.142-.78.261-.536.08-.61-1.255-.995-1.336-.38-1.534-.119-1.622.224l-.195.526a90.683 90.683 0 0 1-.343.08c-.206-.934-.097-1.996 1.005-2.317a.731.731 0 0 0 .835.709.726.726 0 0 0 .624-.816.731.731 0 0 0-.62-.616h-.01c-1.65-.218-2.58 2.133-2.292 3.15l-.45.114C6.233 4.298 3.644 3.136 1.696 3.136c-.832 0-1.55.213-2.07.62a2.153 2.153 0 0 0-.822 1.752c0 .35.068.73.209 1.135a4.387 4.387 0 0 0-1.426.763c-.765.619-1.208 1.467-1.208 2.345a2.775 2.775 0 0 0 .505 1.574c1.188 1.727 3.567 2.142 5.424 2.146.653 0 1.246-.053 1.704-.124a5.68 5.68 0 0 0 .58-.113 2.04 2.04 0 0 0 .204-.062c.829 1.704 2.834 1.735 3.374 1.708.77-.04 1.436.133 2.134.539.038-.205.884-1.386 1.62-2.152.066-.07.126-.141.188-.209.26-.296.472-.57.652-.823a8.5 8.5 0 0 0 .452.126c-.269.457-.553.79-.787.939h-.007c-.267 0-.356-.076-.42 1.055l-.64.098c-.308.855-1.6 3.11-1.969 3.55-.042-.56-.464-1.335-.675.023-.112.718.269 1.407.816.98.548-.429 2.007-3.8 2.09-3.954l.339-.052c-.076.985-.196 1.47-.216 1.6-.013.141-.17.305-.307.11-.134-.192-.386.02-.104.508.282.49.484.392.563-.076l.359-2.187.722-.113c-.186 1.22-1.201 4.596-1.369 4.934-.058-.414-.504-.522-.602.298-.097.825.693 1.35.805.878.11-.476 1.554-5.47 1.75-5.598.082-.055.18-.109.266-.147.006.545-.01 1.433-.017 1.665-.01.42.235.632.662.118.427-.52.342-.892-.048-.593-.387.3-.298-.596-.258-.81.042-.217.12-.877.523-.355.374.483.681.72.816.823-.203.29-1.571 2.559-1.886 3.52-.348 1.065.337 1.366 1.077.77.738-.595.216-.735-.048-.595-.265.146-.513.179-.31-.415.157-.463 1.103-2.177 1.607-3.05l-.04.342c-.065.637-.088 1.012-.058 1.232.059.411.294.56.816-.042.153-.195.023-.356-.218-.287-.18.05-.306.05-.213-.388.059-.293.245-1.403.411-1.971.046.01.092.025.135.036.012.003.02.007.032.007.033.012.066.018.094.027.017.004.03.012.045.017.027.004.053.016.082.026l.046.013.073.034c.016.002.033.01.048.016a.635.635 0 0 0 .068.033c.016.006.029.017.043.024.026.01.046.025.068.037.007.004.013.004.02.013l.022.01c.025.017.05.032.07.049l.033.02.098.082c1.906-.555 3.79-2.126 4.155-2.73l-.033-.02a4.159 4.159 0 0 0-.662-.276c1.273-.175 2.562-.48 3.75-.983 2.669-1.125 3.904-2.895 3.907-4.465a2.79 2.79 0 0 0-1.034-2.176" fill="#231f20"/></g></svg>