<svg xmlns="http://www.w3.org/2000/svg" viewBox="0 0 26.458 26.458"><circle r="13.229" cy="13.229" cx="13.229" fill="#ac121f"/><path d="M6.2 8.65h-.908V6.39h5.658c1.33 0 2.45.36 3.146.993 1.161 1.035 1.753 3.104 1.753 6.017 0 3.526-.824 5.722-2.45 6.503-.718.338-2.048.57-3.336.57H5.292v-2.259H6.2V8.65zm3.884 9.564c1.584 0 1.9-.865 1.9-5.257 0-2.238-.168-3.42-.57-3.885-.253-.338-.675-.443-1.689-.422v9.564zm10.513.032h.57v2.26h-4.582v-2.26h.57V12.46h-.57v-2.238h4.012zm.21-10.536c0 1.035-.802 1.668-2.09 1.668-1.287 0-2.11-.633-2.11-1.647 0-1.034.801-1.668 2.131-1.668 1.267 0 2.07.655 2.07 1.647z" fill="#F7EAE4"/></svg>