<svg xmlns="http://www.w3.org/2000/svg" viewBox="0 0 25 25"><circle fill="#1d1d1b" r="12.5" cy="12.5" cx="12.5"/><path d="M19.167 16.48c.46 0 .833-.359.833-1 0-.642-.373-1-.833-1-.46 0-.834.358-.834 1 0 .641.373 1 .834 1M8 16.141V8.809h.405c.38 0 .595.173.595.662v6.03c0 .489-.216.641-.595.641zM5.667 9.476v6c0 .733-.278.844-.486.844H5v.16h3.508c1.933 0 3.158-1.505 3.158-4 0-2.482-1.225-3.999-3.158-3.999H5v.159h.18c.209 0 .487.102.487.836zm6.011-.976v.16l.259-.004c.27 0 .396.233.396.747V15.5c0 .513-.203.84-.533.84h-.134v.16h1.667v-.16h-.135c-.33 0-.532-.327-.532-.84v-5.333l3.333 6.333h1.667V9.479c0-.514.18-.82.51-.82h.156V8.5h-1.666v.159h.134c.342 0 .532.327.532.841v4.333l-3-5.333z" fill="#fff"/></svg>