<svg xmlns="http://www.w3.org/2000/svg" viewBox="0 0 25 25"><circle fill="#0072ce" r="12.5" cy="12.5" cx="12.5"/><path d="M4.5 17.603h11.83v.894H4.5zm6.369-10.068H9.095v9.16h1.884c1.11 0 1.734-.706 1.734-1.938V9.79c-.001-1.416-.692-2.256-1.844-2.256zm.495 7.507a.527.527 0 0 1-.542.542h-.387V8.687h.352c.366 0 .584.203.584.595zm-4.6-3.658h-.936v-3.85H4.5v9.16h1.327v-4.12h.937v4.12h1.327v-9.16H6.764m13.654-1.992c-.068 0-.217.12-.292.12-.013 0-.041 0-.041-.04a.365.365 0 0 0 .04-.215.452.452 0 0 0 .147-.291.346.346 0 0 0-.34-.353.827.828 0 0 0-.255.07.05.05 0 0 1-.014-.042.496.497 0 0 0 .014-.067c0-.013-.028-.082-.068-.082 0 .082-.013.177-.067.177a.013.013 0 0 1-.014-.013c-.121 0-.04.123-.107.162-.096 0-.147-.136-.244-.136a1.037 1.037 0 0 1 .23.665c-.028.096-.146.23-.257.23a.377.377 0 0 1-.23-.068l.108-.146s.081-.257.081-.285c0-.07-.04-.108-.04-.162 0-.054.053-.082.053-.122 0-.04-.027-.081-.027-.121 0-.01.005-.02.013-.028-.054-.096-.121-.242-.23-.242a.93.93 0 0 0-.176.462v.08c-.068.04-.068.096-.068.177 0 .082.028.147.028.19a.211.211 0 0 1-.108.202.986.986 0 0 1-.473-.162.753.753 0 0 0-.067.38c.138.132.298.239.474.31l.11.137c.163.04.27.23.379.352-.177.12-.584.53-.651.53-.065 0-.121-.082-.19-.082-.135-.096-.366 0-.487-.146a.359.359 0 0 0-.203-.067c-.146 0-.61.08-.637.16.014.028.028.04.054.04.027 0 .041-.012.054-.012.069 0 .122.026.19.026a.955.955 0 0 0 .271-.054c.211.044.41.132.585.258-.217 0-.38-.123-.585-.123-.162.014-.292.068-.437.068-.109 0-.232-.068-.34-.068a.08.08 0 0 0-.053.014c0 .146.34.202.705.339.093 0 .215-.014.325-.014a.372.372 0 0 1 .339.146c-.11 0-.204-.081-.293-.081-.121 0-.203.08-.31.08-.191 0-.34-.12-.517-.12a.297.297 0 0 0-.146.028c0 .082.393.256.57.27.121-.02.242-.033.366-.04a.49.49 0 0 1 .243.054c-.203 0-.393.067-.57.067h-.056c-.027 0-.027 0-.027.013.19.075.392.118.595.122a.295.295 0 0 0 .137-.04c.136.04.216.107.216.23 0 .176-.108.46-.203.46-.013 0-.067 0-.082-.026-.385-.23-.78-.51-1.197-.718-.393-.23-.84-.31-1.302-.438l-1.478-.307c-.054 0-.095-.028-.162-.028s-.203.042-.203.163a.2.2 0 0 0 .054.109l.691.12c.146.043.163.07.163.084 0 .013 0 .028-.014.028l-.692-.07.028.109c.013.066.08.08.136.107.336.064 1.713.16 2.31.282L13.62 8.05h-.583a.255.255 0 0 0-.056.177v.04c.313.054 1.33.108 1.33.23a.013.013 0 0 1-.014.014c-.474 0-.962-.123-1.422-.123a.102.102 0 0 0-.108.054c0 .353 1.571.054 1.752.38 0 .014-.026.042-.04.055-.53-.041-1.059-.096-1.587-.096 0 .285 1.383.292 1.91.393l-.013.013a9.825 9.825 0 0 1-1.558-.095c.27.326.567.28.908.28.438 0 .895-.054 1.328-.054-.014 0-.014-.04-.014-.068a.123.123 0 0 1 .014-.068.368.368 0 0 1-.232-.081c-.013-.013-.35-.31-.35-.437v-.056l-.082-.066c-.041-.041-.082-.041-.082-.162 0-.067.082-.122.145-.122h.014c0 .04-.055.082-.055.12a.165.166 0 0 0 .137.148c.067 0 .146-.028.19-.028a.044.044 0 0 1 .04.04c-.053.096-.202.029-.202.12 0 .166.243.166.312.166.013 0 .054-.041.08-.041l.028.028a.207.207 0 0 1-.147.08.26.26 0 0 0 .286.23c.04 0 .107-.026.146-.026-.082.055-.136.082-.136.146 0 .01.005.02.013.028l.04.082a.73.73 0 0 0 .438.176h.11c.094.19.29.23.514.23h.093a.73.73 0 0 0 .462.217c.04 0 .081-.028.121-.028l-.081.773c0 .082-.285.292-.406.352-.393.217-.271 1.023-.585 1.023-.161 0-.313-.096-.5-.096-.272 0-.543.07-.813.07h-.082a2.395 2.395 0 0 0-.406-.082h-.046c-.108.054-.08.162-.136.243l-.176.162c-.081.096-.177.19-.177.292a.122.122 0 0 0 .028.082h.04c.083 0 .122-.07.19-.108l.393-.136a.642.642 0 0 1 .353-.082c.487 0 .962.244 1.503.244.175 0 .27-.203.42-.203.068 0 .123.082.163.122.072.65.612 1.017.612 1.505v.108l-.256.406c-.136.217-.096.598-.136.855a3.758 3.758 0 0 1-.192.746l-.121.122c0 .028-.028.042-.028.068 0 .095.146.176.203.284a1.723 1.723 0 0 1 .175.474.679.679 0 0 0-.487.665.693.693 0 0 0 .705.665c.406 0 .73-.244.73-.678 0-.798-.704-.556-.704-1.083v-.166c0-.108-.028-.19-.028-.29V16.2a13.011 13.012 0 0 1 .84-1.94v-.094c0-.136-.054-.244-.069-.44-.026-.364-.146-1.167-.46-1.68a.082.082 0 0 1-.013-.053c0-.272.326-.474.326-.908.086-.146.16-.302.217-.46.08-.231.44-.462.44-.556a.402.402 0 0 0-.069-.19c.123-.081.353-.027.461-.19l.145-.46c.096-.096.054-1.07.136-1.07a.23.23 0 0 0 .121-.163V7.97l.293-.041c.23-.026.365-.311.474-.501v-.082c0-.392-.27-.745-.596-.948a.89.89 0 0 1-.292.068.338.338 0 0 1-.013-.108c.353-.082.759-.19.909-.585.04-.108.145-.108.145-.19.005-.008-.022-.042-.081-.042zm-3.322 4.173c-.052-.006-.423-.07-.549-.31h-.096c-.108 0-.352-.04-.352-.232a.196.196 0 0 1 .013-.08.34.34 0 0 1-.31-.231.218.218 0 0 1 .04-.146c-.095-.041-.216-.122-.216-.244 0-.123.095-.163.204-.163.012 0 .012 0 .012.013 0 .04-.054.04-.095.082 0 .273.244.258.406.258h.146c-.136.054-.366.026-.366.162 0 .135.19.19.284.19.112-.012.22-.035.326-.07-.082.12-.325.083-.325.204 0 .12.19.19.31.19a.49.49 0 0 0 .317-.112c-.028.07-.107.109-.161.147a.27.27 0 0 0 .12.12h.096a.57.57 0 0 0 .27-.051c0 .054-.082.095-.136.12 0 .016.054.042.082.07a.976.976 0 0 0 .27-.054.511.511 0 0 1-.29.14zm.426-.35a.236.236 0 0 1-.172-.217h-.094a.318.318 0 0 1-.216-.123l-.028-.082h-.053c-.054 0-.446-.19-.446-.438 0-.108.135-.108.176-.121a.272.272 0 0 0-.04.145.146.146 0 0 0 .12.096.438.438 0 0 0 .23-.042c-.027.108-.189.04-.189.12 0 .11.146.147.23.147a.48.48 0 0 0 .166-.062c0 .067-.123.146-.123.177a.271.271 0 0 0 .162.082h.067a.774.774 0 0 0 .19-.041c0 .04-.108.054-.108.122 0 .067.146.145.258.145.04 0 .081-.027.12-.027-.073.036-.167.119-.248.119zm1.07-.147c-.026 0-.04-.028-.067-.068v-.084c.122-.136.095-.447.257-.447h.096c-.04.17-.205.595-.285.595z" fill="#fff"/></svg>