<svg xmlns="http://www.w3.org/2000/svg" viewBox="0 0 25 25"><circle fill="#df1b5f" r="12.5" cy="12.5" cx="12.5"/><path d="M14.742 9.504l.223-.263a.328.328 0 0 0 .113.226l.186-.019.055.168a7.214 7.214 0 0 0-1.008.507l.055.095a.315.315 0 0 0-.223.262l-.336.076-.186-.827zm-1.03-3.626a.286.286 0 0 1 .282.226c0 .15.018.168-.187.262.019 0 .019-.018.019-.036a.084.084 0 0 0-.074-.055v-.077c-.113-.057-.055-.076-.131-.076-.018 0-.037.019-.055.019 0-.055-.113-.055-.113-.055a.247.247 0 0 1 .262-.208zm-.745 4.655a7.224 7.224 0 0 1-1.533.6l-.073-.225c.467-.15.897-.32 1.289-.488zm-2.69 3.564l-.224-.15.15.227-.242.112h.263l-.018.263.13-.207.245.13-.131-.243.241-.113h-.3v-.263zm.916-9.253a.147.147 0 0 1-.056.131.446.446 0 0 0-.372-.394.436.436 0 0 0-.223.037.567.567 0 0 1 .262.488 2.588 2.588 0 0 1-.373.056 3.392 3.392 0 0 1-.43-.056l-.037.339c-.113 0-.223-.168-.336-.168a7.235 7.235 0 0 0-.711.226c-.205 0-.413-.055-.58-.055-.113 0-.318.018-.318.113 0 .094.037.094.037.112 0 .019-.037.037-.056.037-.094 0-.15-.113-.223-.113-.244.113-.467.3-.467.489s.635.13.953.189c-.263.036-.635.112-.788.357.055.168.242.43.43.43.19 0 .3-.3.526-.3.318 0 .486.3.858.3a2.707 2.707 0 0 0 .822-.244c-1.194.75-2.336 1.446-2.336 2.704a2.258 2.258 0 0 0 .28 1.126c-.223-.113-1.233-.543-1.606-.543a.643.643 0 0 0-.449.393 2.294 2.294 0 0 0 .244.864c.318.525.373 1.181.486 1.783.037.225.43.168.525.375.15.488.43 1.032.971 1.032v-1.145a.969.969 0 0 1-.317.055.633.633 0 0 1-.281-.055l.055-.339c-.055-.15-.263-.244-.373-.32a7.014 7.014 0 0 1-.263-1.52c.373.339 1.234.995 1.552.995a.396.396 0 0 0 .28-.131 7.222 7.222 0 0 0 .73.769.659.659 0 0 1-.412.263c-.223 0-.39-.263-.43-.47l-.223.113a.966.966 0 0 0 .86.987.318.318 0 0 1-.167.262l.28.207c.468-.112.374-.525.749-.805.748.543 1.494.714 2.625.714a1.924 1.924 0 0 0-.094.6c0 1.185.766 1.597 1.924 1.99a14.37 14.37 0 0 1-1.533 1.801l.131.263-.412.058c-.318.168-.504.375-.504.656h1.252a1.546 1.546 0 0 1 .223-.394l-.223-.168a.404.404 0 0 1 .336-.15c.373-.75 1.756-1.895 1.756-2.157a.126.126 0 0 0-.055-.113c-.43-.226-.73-.544-.73-.827 0-.43.672-.77.898-1.071a1.696 1.696 0 0 0 .318-.995 2 2 0 0 0-.187-.864.56.56 0 0 1 .486-.262c.3 0 .412.28.412.6 0 .431-.317.96-.317 1.39a1.357 1.357 0 0 0 1.457 1.464c.467 0 1.008-.055 1.194-.262-.788-.055-1.14-.339-1.158-.714a.709.709 0 0 0 .504.226.562.562 0 0 0 .599-.357c-1.906 0-.263-3.208-1.961-3.208-.803 0-1.027.638-1.384.75-.372-.525-.916-.582-1.42-.695l1.533-.507-.244-.808c.131-.055.43-.095.43-.32 0-.544-.409-1.182-.524-1.52-.055-.19-.749-.47-.749-.544 0-.073.113-.131.113-.189a.068.068 0 0 0-.018-.058c.073-.131.318-.113.449-.299.092.058.168.131.262.131a.05.05 0 0 0 .056-.057.543.543 0 0 0-.113-.32 3.203 3.203 0 0 1 .803-.376 1.575 1.575 0 0 0-.711-1.032 4.463 4.463 0 0 1-.673.656.732.732 0 0 0-.299-.189c-.037 0-.094 0-.094.058a.593.593 0 0 0 .15.281 1.775 1.775 0 0 1-.526.19c0 .075.074.112.074.149a.018.018 0 0 1-.019.018c-.036 0-.036-.018-.055-.018-.018 0-.223.226-.223.338 0 .168.263.19.263.339 0 .055-.037.076-.055.131a.709.709 0 0 0-.355-.113c-.223 0-.562.037-.803.058l.373-.488a.263.263 0 0 0-.113-.168.578.578 0 0 1 .336-.168c.037 0 .037.055.094.055.058 0 .113-.037.113-.095l.15.19.131-.15a1.887 1.887 0 0 1-.3-.263.572.572 0 0 0 .374-.43.488.488 0 0 0-.486-.507c-.186 0-.412.113-.412.281v-.113a.88.88 0 0 1 .635-.714l-1.084-.488a1.588 1.588 0 0 0-.131.601 1.536 1.536 0 0 0 .372 1.108c0 .058-.055.113-.055.207 0 .037.037.058.037.095 0 .036-.095.131-.15.189l-.13-.058c-.263.433-.673.809-.673 1.24 0 .43.935.374 1.176.43-.486.488-.711 1.18-1.234 1.52a.788.788 0 0 0 .412.207 3.34 3.34 0 0 1-.525.207c-.485-.375-.99-.6-.99-1.352a.788.788 0 0 0 .169.019.633.633 0 0 0 .336-.132.767.767 0 0 1-.43-.582.457.457 0 0 0 .317.113.622.622 0 0 0 .43-.168.525.525 0 0 1-.372-.489.357.357 0 0 1 .036-.15.223.223 0 0 0 .095.019.753.753 0 0 0 .559-.3c-.318 0-.373-.207-.373-.32a.11.11 0 0 1 .019-.076.14.14 0 0 0 .094.019.501.501 0 0 0 .43-.263c-.58-.018-.335-.488-.524-.827.204-.168.43-.168.635-.375l.094-.095a3.203 3.203 0 0 1-.58.037l.336-.32a3.772 3.772 0 0 1-.58.076.7.7 0 0 1-.205-.018.921.921 0 0 0 .019-.226.446.446 0 0 0-.43-.47.57.57 0 0 1 .112.357z" fill="#fff"/></svg>